<svg width="160" height="160" viewBox="0 0 160 160" fill="none" xmlns="http://www.w3.org/2000/svg">
<path d="M100.37 4.21544L84.6381 0L71.3805 49.4783L59.4113 4.80896L43.6789 9.0244L56.6109 57.2863L24.4003 25.0759L12.8835 36.5927L48.2145 71.9239L4.21543 60.1343L0 75.8663L48.0745 88.7479C47.5241 86.3739 47.2329 83.9003 47.2329 81.3587C47.2329 63.3683 61.8169 48.7843 79.8073 48.7843C97.7977 48.7843 112.382 63.3683 112.382 81.3587C112.382 83.8839 112.094 86.3423 111.55 88.7023L155.241 100.409L159.456 84.6771L111.191 71.7443L155.193 59.9539L150.977 44.2219L102.714 57.1539L134.924 24.9437L123.407 13.4269L88.5665 48.2679L100.37 4.21544Z" fill="#0857FE"/>
<path d="M111.508 88.8855C110.159 94.5879 107.311 99.7107 103.404 103.815L135.056 135.467L146.573 123.951L111.508 88.8855Z" fill="#0857FE"/>
<path d="M103.084 104.146C99.1296 108.185 94.1324 111.199 88.5284 112.752L100.046 155.736L115.778 151.521L103.084 104.146Z" fill="#0857FE"/>
<path d="M87.9409 112.909C85.3409 113.578 82.6157 113.933 79.8073 113.933C76.7985 113.933 73.8849 113.525 71.1189 112.761L59.5909 155.785L75.3229 160L87.9409 112.909Z" fill="#0857FE"/>
<path d="M70.5629 112.603C65.0445 110.972 60.1361 107.92 56.2625 103.869L24.5325 135.599L36.0493 147.116L70.5629 112.603Z" fill="#0857FE"/>
<path d="M55.9976 103.589C52.1904 99.5131 49.4172 94.4587 48.0972 88.8443L4.26379 100.589L8.47919 116.321L55.9976 103.589Z" fill="#0857FE"/>
</svg>

